SplineFontDB: 3.2
FontName: Pixel-9x9
FullName: Pixel-9x9
FamilyName: Pixel
Weight: Regular
Copyright: Copyright (c) 2024, CTCL
UComments: "2024-5-25: Created with FontForge (http://fontforge.org)"
Version: 001.000
ItalicAngle: 0
UnderlinePosition: -123
UnderlineWidth: 123
Ascent: 864
Descent: 384
InvalidEm: 0
LayerCount: 2
Layer: 0 0 "Back" 1
Layer: 1 0 "Fore" 0
XUID: [1021 591 -1735377019 13095594]
OS2Version: 0
OS2_WeightWidthSlopeOnly: 0
OS2_UseTypoMetrics: 1
CreationTime: 1716655798
ModificationTime: 1716658764
OS2TypoAscent: 0
OS2TypoAOffset: 1
OS2TypoDescent: 0
OS2TypoDOffset: 1
OS2TypoLinegap: 0
OS2WinAscent: 0
OS2WinAOffset: 1
OS2WinDescent: 0
OS2WinDOffset: 1
HheadAscent: 0
HheadAOffset: 1
HheadDescent: 0
HheadDOffset: 1
OS2Vendor: 'PfEd'
MarkAttachClasses: 1
DEI: 91125
Encoding: ISO8859-1
UnicodeInterp: none
NameList: AGL For New Fonts
DisplaySize: -48
AntiAlias: 1
FitToEm: 0
WinInfo: 0 38 14
BeginPrivate: 0
EndPrivate
BeginChars: 256 94

StartChar: exclam
Encoding: 33 33 0
Width: 192
VWidth: 1000
Flags: HW
LayerCount: 2
Fore
SplineSet
0 864 m 1
 96 864 l 1
 96 768 l 1
 96 672 l 1
 96 576 l 1
 96 480 l 1
 96 384 l 1
 96 288 l 1
 96 192 l 1
 0 192 l 1
 0 288 l 1
 0 384 l 1
 0 480 l 1
 0 576 l 1
 0 672 l 1
 0 768 l 1
 0 864 l 1
0 96 m 1
 96 96 l 1
 96 0 l 1
 0 0 l 1
 0 96 l 1
EndSplineSet
EndChar

StartChar: quotedbl
Encoding: 34 34 1
Width: 384
VWidth: 1056
Flags: HW
LayerCount: 2
Fore
SplineSet
0 864 m 1
 96 864 l 1
 96 768 l 1
 96 672 l 1
 0 672 l 1
 0 768 l 1
 0 864 l 1
192 864 m 1
 288 864 l 1
 288 768 l 1
 288 672 l 1
 192 672 l 1
 192 768 l 1
 192 864 l 1
EndSplineSet
EndChar

StartChar: numbersign
Encoding: 35 35 2
Width: 576
VWidth: 1056
Flags: HW
LayerCount: 2
Fore
SplineSet
96 864 m 1
 192 864 l 1
 192 768 l 1
 192 672 l 1
 192 576 l 1
 288 576 l 1
 288 672 l 1
 288 768 l 1
 288 864 l 1
 384 864 l 1
 384 768 l 1
 384 672 l 1
 384 576 l 1
 480 576 l 1
 480 480 l 1
 384 480 l 1
 384 384 l 1
 480 384 l 1
 480 288 l 1
 384 288 l 1
 384 192 l 1
 384 96 l 1
 384 0 l 1
 288 0 l 1
 288 96 l 1
 288 192 l 1
 288 288 l 1
 192 288 l 1
 192 192 l 1
 192 96 l 1
 192 0 l 1
 96 0 l 1
 96 96 l 1
 96 192 l 1
 96 288 l 1
 0 288 l 1
 0 384 l 1
 96 384 l 1
 96 480 l 1
 0 480 l 1
 0 576 l 1
 96 576 l 1
 96 672 l 1
 96 768 l 1
 96 864 l 1
192 480 m 1
 192 384 l 1
 288 384 l 1
 288 480 l 1
 192 480 l 1
EndSplineSet
EndChar

StartChar: dollar
Encoding: 36 36 3
Width: 576
VWidth: 1056
Flags: HW
LayerCount: 2
Fore
SplineSet
192 864 m 1
 288 864 l 1
 288 768 l 1
 384 768 l 1
 480 768 l 1
 480 672 l 1
 384 672 l 1
 288 672 l 1
 288 576 l 1
 288 480 l 1
 384 480 l 1
 480 480 l 1
 480 384 l 1
 480 288 l 1
 480 192 l 1
 480 96 l 1
 384 96 l 1
 288 96 l 1
 288 0 l 1
 192 0 l 1
 192 96 l 1
 96 96 l 1
 0 96 l 1
 0 192 l 1
 96 192 l 1
 192 192 l 1
 192 288 l 1
 192 384 l 1
 96 384 l 1
 0 384 l 1
 0 480 l 1
 0 576 l 1
 0 672 l 1
 0 768 l 1
 96 768 l 1
 192 768 l 1
 192 864 l 1
96 672 m 1
 96 576 l 1
 96 480 l 1
 192 480 l 1
 192 576 l 1
 192 672 l 1
 96 672 l 1
288 384 m 1
 288 288 l 1
 288 192 l 1
 384 192 l 1
 384 288 l 1
 384 384 l 1
 288 384 l 1
EndSplineSet
EndChar

StartChar: percent
Encoding: 37 37 4
Width: 576
VWidth: 1056
Flags: HW
LayerCount: 2
Fore
SplineSet
0 864 m 1
 96 864 l 1
 192 864 l 1
 192 768 l 1
 192 672 l 1
 96 672 l 1
 0 672 l 1
 0 768 l 1
 0 864 l 1
384 864 m 1
 480 864 l 1
 480 768 l 1
 384 768 l 1
 384 864 l 1
384 768 m 1
 384 672 l 1
 384 576 l 1
 288 576 l 1
 288 672 l 1
 288 768 l 1
 384 768 l 1
288 576 m 1
 288 480 l 1
 288 384 l 1
 288 288 l 1
 192 288 l 1
 192 384 l 1
 192 480 l 1
 192 576 l 1
 288 576 l 1
192 288 m 1
 192 192 l 1
 192 96 l 1
 96 96 l 1
 96 192 l 1
 96 288 l 1
 192 288 l 1
96 96 m 1
 96 0 l 1
 0 0 l 1
 0 96 l 1
 96 96 l 1
288 192 m 1
 384 192 l 1
 480 192 l 1
 480 96 l 1
 480 0 l 1
 384 0 l 1
 288 0 l 1
 288 96 l 1
 288 192 l 1
EndSplineSet
EndChar

StartChar: quotesingle
Encoding: 39 39 6
Width: 192
VWidth: 1056
Flags: HW
LayerCount: 2
Fore
SplineSet
0 864 m 1
 96 864 l 1
 96 768 l 1
 96 672 l 1
 0 672 l 1
 0 768 l 1
 0 864 l 1
EndSplineSet
EndChar

StartChar: parenleft
Encoding: 40 40 7
Width: 576
VWidth: 1056
InSpiro: 1
Flags: HW
LayerCount: 2
Fore
SplineSet
192 864 m 1
 288 864 l 1
 288 768 l 1
 192 768 l 1
 192 864 l 1
  Spiro
    192 864 v
    288 864 v
    288 768 v
    192 768 v
    0 0 z
  EndSpiro
192 768 m 1
 192 672 l 1
 96 672 l 1
 96 768 l 1
 192 768 l 1
  Spiro
    192 768 v
    192 672 v
    96 672 v
    96 768 v
    0 0 z
  EndSpiro
96 672 m 1
 96 576 l 1
 96 480 l 1
 96 384 l 1
 96 288 l 1
 96 192 l 1
 0 192 l 1
 0 288 l 1
 0 384 l 1
 0 480 l 1
 0 576 l 1
 0 672 l 1
 96 672 l 1
  Spiro
    96 672 v
    96 576 v
    96 480 v
    96 384 v
    96 288 v
    96 192 v
    0 192 v
    0 288 v
    0 384 v
    0 480 v
    0 576 v
    0 672 v
    0 0 z
  EndSpiro
96 192 m 1
 192 192 l 1
 192 96 l 1
 96 96 l 1
 96 192 l 1
  Spiro
    96 192 v
    192 192 v
    192 96 v
    96 96 v
    0 0 z
  EndSpiro
192 96 m 1
 288 96 l 1
 288 0 l 1
 192 0 l 1
 192 96 l 1
  Spiro
    192 96 v
    288 96 v
    288 0 v
    192 0 v
    0 0 z
  EndSpiro
EndSplineSet
EndChar

StartChar: parenright
Encoding: 41 41 8
Width: 576
VWidth: 1056
Flags: HW
LayerCount: 2
Fore
SplineSet
0 864 m 1
 96 864 l 1
 96 768 l 1
 0 768 l 1
 0 864 l 1
96 768 m 1
 192 768 l 1
 192 672 l 1
 96 672 l 1
 96 768 l 1
192 672 m 1
 288 672 l 1
 288 576 l 1
 288 480 l 1
 288 384 l 1
 288 288 l 1
 288 192 l 1
 192 192 l 1
 192 288 l 1
 192 384 l 1
 192 480 l 1
 192 576 l 1
 192 672 l 1
192 192 m 1
 192 96 l 1
 96 96 l 1
 96 192 l 1
 192 192 l 1
96 96 m 1
 96 0 l 1
 0 0 l 1
 0 96 l 1
 96 96 l 1
EndSplineSet
EndChar

StartChar: plus
Encoding: 43 43 10
Width: 576
VWidth: 1056
Flags: HW
LayerCount: 2
Fore
SplineSet
192 672 m 1
 288 672 l 1
 288 576 l 1
 288 480 l 1
 384 480 l 1
 480 480 l 1
 480 384 l 1
 384 384 l 1
 288 384 l 1
 288 288 l 1
 288 192 l 1
 192 192 l 1
 192 288 l 1
 192 384 l 1
 96 384 l 1
 0 384 l 1
 0 480 l 1
 96 480 l 1
 192 480 l 1
 192 576 l 1
 192 672 l 1
EndSplineSet
EndChar

StartChar: comma
Encoding: 44 44 11
Width: 192
VWidth: 1056
Flags: HW
LayerCount: 2
Fore
SplineSet
0 192 m 1
 96 192 l 1
 96 96 l 1
 96 0 l 1
 0 0 l 1
 0 96 l 1
 0 192 l 1
EndSplineSet
EndChar

StartChar: hyphen
Encoding: 45 45 12
Width: 576
VWidth: 1056
Flags: HW
LayerCount: 2
Fore
SplineSet
0 480 m 1
 96 480 l 1
 192 480 l 1
 288 480 l 1
 384 480 l 1
 480 480 l 1
 480 384 l 1
 384 384 l 1
 288 384 l 1
 192 384 l 1
 96 384 l 1
 0 384 l 1
 0 480 l 1
EndSplineSet
EndChar

StartChar: period
Encoding: 46 46 13
Width: 192
VWidth: 1056
Flags: HW
LayerCount: 2
Fore
SplineSet
0 96 m 1
 96 96 l 1
 96 0 l 1
 0 0 l 1
 0 96 l 1
EndSplineSet
EndChar

StartChar: slash
Encoding: 47 47 14
Width: 576
VWidth: 1056
Flags: HW
LayerCount: 2
Fore
SplineSet
384 864 m 1
 480 864 l 1
 480 768 l 1
 384 768 l 1
 384 864 l 1
384 768 m 1
 384 672 l 1
 384 576 l 1
 288 576 l 1
 288 672 l 1
 288 768 l 1
 384 768 l 1
288 576 m 1
 288 480 l 1
 288 384 l 1
 288 288 l 1
 192 288 l 1
 192 384 l 1
 192 480 l 1
 192 576 l 1
 288 576 l 1
192 288 m 1
 192 192 l 1
 192 96 l 1
 96 96 l 1
 96 192 l 1
 96 288 l 1
 192 288 l 1
96 96 m 1
 96 0 l 1
 0 0 l 1
 0 96 l 1
 96 96 l 1
EndSplineSet
EndChar

StartChar: zero
Encoding: 48 48 15
Width: 576
VWidth: 1056
Flags: HW
LayerCount: 2
Fore
SplineSet
96 864 m 1
 192 864 l 1
 288 864 l 1
 384 864 l 1
 384 768 l 1
 288 768 l 1
 192 768 l 1
 96 768 l 1
 96 864 l 1
384 768 m 1
 480 768 l 1
 480 672 l 1
 480 576 l 1
 480 480 l 1
 480 384 l 1
 480 288 l 1
 480 192 l 1
 480 96 l 1
 384 96 l 1
 384 192 l 1
 384 288 l 1
 384 384 l 1
 384 480 l 1
 288 480 l 1
 288 576 l 1
 384 576 l 1
 384 672 l 1
 384 768 l 1
384 96 m 1
 384 0 l 1
 288 0 l 1
 192 0 l 1
 96 0 l 1
 96 96 l 1
 192 96 l 1
 288 96 l 1
 384 96 l 1
96 96 m 1
 0 96 l 1
 0 192 l 1
 0 288 l 1
 0 384 l 1
 0 480 l 1
 0 576 l 1
 0 672 l 1
 0 768 l 1
 96 768 l 1
 96 672 l 1
 96 576 l 1
 96 480 l 1
 96 384 l 1
 192 384 l 1
 192 288 l 1
 96 288 l 1
 96 192 l 1
 96 96 l 1
192 384 m 1
 192 480 l 1
 288 480 l 1
 288 384 l 1
 192 384 l 1
EndSplineSet
EndChar

StartChar: one
Encoding: 49 49 16
Width: 576
VWidth: 1056
Flags: HW
LayerCount: 2
Fore
SplineSet
192 864 m 1
 288 864 l 1
 288 768 l 1
 288 672 l 1
 288 576 l 1
 288 480 l 1
 288 384 l 1
 288 288 l 1
 288 192 l 1
 288 96 l 1
 384 96 l 1
 480 96 l 1
 480 0 l 1
 384 0 l 1
 288 0 l 1
 192 0 l 1
 96 0 l 1
 0 0 l 1
 0 96 l 1
 96 96 l 1
 192 96 l 1
 192 192 l 1
 192 288 l 1
 192 384 l 1
 192 480 l 1
 192 576 l 1
 192 672 l 1
 96 672 l 1
 96 768 l 1
 192 768 l 1
 192 864 l 1
EndSplineSet
EndChar

StartChar: two
Encoding: 50 50 17
Width: 576
VWidth: 1056
Flags: HW
LayerCount: 2
Fore
SplineSet
96 864 m 1
 192 864 l 1
 288 864 l 1
 384 864 l 1
 384 768 l 1
 288 768 l 1
 192 768 l 1
 96 768 l 1
 96 864 l 1
384 768 m 1
 480 768 l 1
 480 672 l 1
 480 576 l 1
 384 576 l 1
 384 672 l 1
 384 768 l 1
384 576 m 1
 384 480 l 1
 288 480 l 1
 288 576 l 1
 384 576 l 1
288 480 m 1
 288 384 l 1
 192 384 l 1
 192 480 l 1
 288 480 l 1
192 384 m 1
 192 288 l 1
 96 288 l 1
 96 384 l 1
 192 384 l 1
96 288 m 1
 96 192 l 1
 96 96 l 1
 192 96 l 1
 288 96 l 1
 384 96 l 1
 480 96 l 1
 480 0 l 1
 384 0 l 1
 288 0 l 1
 192 0 l 1
 96 0 l 1
 0 0 l 1
 0 96 l 1
 0 192 l 1
 0 288 l 1
 96 288 l 1
96 768 m 1
 96 672 l 1
 0 672 l 1
 0 768 l 1
 96 768 l 1
EndSplineSet
EndChar

StartChar: three
Encoding: 51 51 18
Width: 576
VWidth: 1056
Flags: HW
LayerCount: 2
Fore
SplineSet
96 864 m 1
 192 864 l 1
 288 864 l 1
 384 864 l 1
 384 768 l 1
 288 768 l 1
 192 768 l 1
 96 768 l 1
 96 864 l 1
384 768 m 1
 480 768 l 1
 480 672 l 1
 480 576 l 1
 480 480 l 1
 384 480 l 1
 384 576 l 1
 384 672 l 1
 384 768 l 1
384 480 m 1
 384 384 l 1
 288 384 l 1
 192 384 l 1
 192 480 l 1
 288 480 l 1
 384 480 l 1
384 384 m 1
 480 384 l 1
 480 288 l 1
 480 192 l 1
 480 96 l 1
 384 96 l 1
 384 192 l 1
 384 288 l 1
 384 384 l 1
384 96 m 1
 384 0 l 1
 288 0 l 1
 192 0 l 1
 96 0 l 1
 96 96 l 1
 192 96 l 1
 288 96 l 1
 384 96 l 1
96 96 m 1
 0 96 l 1
 0 192 l 1
 96 192 l 1
 96 96 l 1
96 768 m 1
 96 672 l 1
 0 672 l 1
 0 768 l 1
 96 768 l 1
EndSplineSet
EndChar

StartChar: four
Encoding: 52 52 19
Width: 576
VWidth: 1056
Flags: HW
LayerCount: 2
Fore
SplineSet
0 864 m 1
 96 864 l 1
 96 768 l 1
 96 672 l 1
 96 576 l 1
 96 480 l 1
 192 480 l 1
 288 480 l 1
 384 480 l 1
 384 576 l 1
 384 672 l 1
 384 768 l 1
 384 864 l 1
 480 864 l 1
 480 768 l 1
 480 672 l 1
 480 576 l 1
 480 480 l 1
 480 384 l 1
 480 288 l 1
 480 192 l 1
 480 96 l 1
 480 0 l 1
 384 0 l 1
 384 96 l 1
 384 192 l 1
 384 288 l 1
 384 384 l 1
 288 384 l 1
 192 384 l 1
 96 384 l 1
 0 384 l 1
 0 480 l 1
 0 576 l 1
 0 672 l 1
 0 768 l 1
 0 864 l 1
EndSplineSet
EndChar

StartChar: five
Encoding: 53 53 20
Width: 576
VWidth: 1056
Flags: HW
LayerCount: 2
Fore
SplineSet
0 864 m 1
 96 864 l 1
 192 864 l 1
 288 864 l 1
 384 864 l 1
 480 864 l 1
 480 768 l 1
 384 768 l 1
 288 768 l 1
 192 768 l 1
 96 768 l 1
 96 672 l 1
 96 576 l 1
 96 480 l 1
 192 480 l 1
 288 480 l 1
 384 480 l 1
 480 480 l 1
 480 384 l 1
 480 288 l 1
 480 192 l 1
 480 96 l 1
 480 0 l 1
 384 0 l 1
 288 0 l 1
 192 0 l 1
 96 0 l 1
 0 0 l 1
 0 96 l 1
 96 96 l 1
 192 96 l 1
 288 96 l 1
 384 96 l 1
 384 192 l 1
 384 288 l 1
 384 384 l 1
 288 384 l 1
 192 384 l 1
 96 384 l 1
 0 384 l 1
 0 480 l 1
 0 576 l 1
 0 672 l 1
 0 768 l 1
 0 864 l 1
EndSplineSet
EndChar

StartChar: six
Encoding: 54 54 21
Width: 576
VWidth: 1056
Flags: HW
LayerCount: 2
Fore
SplineSet
0 864 m 1
 96 864 l 1
 192 864 l 1
 288 864 l 1
 384 864 l 1
 480 864 l 1
 480 768 l 1
 384 768 l 1
 288 768 l 1
 192 768 l 1
 96 768 l 1
 96 672 l 1
 96 576 l 1
 96 480 l 1
 192 480 l 1
 288 480 l 1
 384 480 l 1
 480 480 l 1
 480 384 l 1
 480 288 l 1
 480 192 l 1
 480 96 l 1
 480 0 l 1
 384 0 l 1
 288 0 l 1
 192 0 l 1
 96 0 l 1
 0 0 l 1
 0 96 l 1
 0 192 l 1
 0 288 l 1
 0 384 l 1
 0 480 l 1
 0 576 l 1
 0 672 l 1
 0 768 l 1
 0 864 l 1
96 384 m 1
 96 288 l 1
 96 192 l 1
 96 96 l 1
 192 96 l 1
 288 96 l 1
 384 96 l 1
 384 192 l 1
 384 288 l 1
 384 384 l 1
 288 384 l 1
 192 384 l 1
 96 384 l 1
EndSplineSet
EndChar

StartChar: seven
Encoding: 55 55 22
Width: 576
VWidth: 1056
Flags: HW
LayerCount: 2
Fore
SplineSet
0 864 m 1
 96 864 l 1
 192 864 l 1
 288 864 l 1
 384 864 l 1
 480 864 l 1
 480 768 l 1
 480 672 l 1
 480 576 l 1
 480 480 l 1
 480 384 l 1
 480 288 l 1
 480 192 l 1
 480 96 l 1
 480 0 l 1
 384 0 l 1
 384 96 l 1
 384 192 l 1
 384 288 l 1
 384 384 l 1
 384 480 l 1
 384 576 l 1
 384 672 l 1
 384 768 l 1
 288 768 l 1
 192 768 l 1
 96 768 l 1
 0 768 l 1
 0 864 l 1
EndSplineSet
EndChar

StartChar: eight
Encoding: 56 56 23
Width: 576
VWidth: 1056
Flags: HW
LayerCount: 2
Fore
SplineSet
0 864 m 1
 96 864 l 1
 192 864 l 1
 288 864 l 1
 384 864 l 1
 480 864 l 1
 480 768 l 1
 480 672 l 1
 480 576 l 1
 480 480 l 1
 480 384 l 1
 480 288 l 1
 480 192 l 1
 480 96 l 1
 480 0 l 1
 384 0 l 1
 288 0 l 1
 192 0 l 1
 96 0 l 1
 0 0 l 1
 0 96 l 1
 0 192 l 1
 0 288 l 1
 0 384 l 1
 0 480 l 1
 0 576 l 1
 0 672 l 1
 0 768 l 1
 0 864 l 1
96 768 m 1
 96 672 l 1
 96 576 l 1
 96 480 l 1
 192 480 l 1
 288 480 l 1
 384 480 l 1
 384 576 l 1
 384 672 l 1
 384 768 l 1
 288 768 l 1
 192 768 l 1
 96 768 l 1
96 384 m 1
 96 288 l 1
 96 192 l 1
 96 96 l 1
 192 96 l 1
 288 96 l 1
 384 96 l 1
 384 192 l 1
 384 288 l 1
 384 384 l 1
 288 384 l 1
 192 384 l 1
 96 384 l 1
EndSplineSet
EndChar

StartChar: nine
Encoding: 57 57 24
Width: 576
VWidth: 1056
Flags: HW
LayerCount: 2
Fore
SplineSet
0 864 m 1
 96 864 l 1
 192 864 l 1
 288 864 l 1
 384 864 l 1
 480 864 l 1
 480 768 l 1
 480 672 l 1
 480 576 l 1
 480 480 l 1
 480 384 l 1
 480 288 l 1
 480 192 l 1
 480 96 l 1
 480 0 l 1
 384 0 l 1
 288 0 l 1
 192 0 l 1
 96 0 l 1
 0 0 l 1
 0 96 l 1
 96 96 l 1
 192 96 l 1
 288 96 l 1
 384 96 l 1
 384 192 l 1
 384 288 l 1
 384 384 l 1
 288 384 l 1
 192 384 l 1
 96 384 l 1
 0 384 l 1
 0 480 l 1
 0 576 l 1
 0 672 l 1
 0 768 l 1
 0 864 l 1
96 768 m 1
 96 672 l 1
 96 576 l 1
 96 480 l 1
 192 480 l 1
 288 480 l 1
 384 480 l 1
 384 576 l 1
 384 672 l 1
 384 768 l 1
 288 768 l 1
 192 768 l 1
 96 768 l 1
EndSplineSet
EndChar

StartChar: colon
Encoding: 58 58 25
Width: 192
VWidth: 1056
Flags: HW
LayerCount: 2
Fore
SplineSet
0 672 m 1
 96 672 l 1
 96 576 l 1
 0 576 l 1
 0 672 l 1
0 288 m 1
 96 288 l 1
 96 192 l 1
 0 192 l 1
 0 288 l 1
EndSplineSet
EndChar

StartChar: semicolon
Encoding: 59 59 26
Width: 192
VWidth: 1056
Flags: HW
LayerCount: 2
Fore
SplineSet
0 672 m 1
 96 672 l 1
 96 576 l 1
 0 576 l 1
 0 672 l 1
0 192 m 1
 96 192 l 1
 96 96 l 1
 96 0 l 1
 0 0 l 1
 0 96 l 1
 0 192 l 1
EndSplineSet
EndChar

StartChar: less
Encoding: 60 60 27
Width: 576
VWidth: 1056
Flags: HW
LayerCount: 2
Fore
SplineSet
384 864 m 1
 480 864 l 1
 480 768 l 1
 384 768 l 1
 384 864 l 1
384 768 m 1
 384 672 l 1
 288 672 l 1
 288 768 l 1
 384 768 l 1
288 672 m 1
 288 576 l 1
 192 576 l 1
 192 672 l 1
 288 672 l 1
192 576 m 1
 192 480 l 1
 96 480 l 1
 96 576 l 1
 192 576 l 1
96 480 m 1
 96 384 l 1
 0 384 l 1
 0 480 l 1
 96 480 l 1
96 384 m 1
 192 384 l 1
 192 288 l 1
 96 288 l 1
 96 384 l 1
192 288 m 1
 288 288 l 1
 288 192 l 1
 192 192 l 1
 192 288 l 1
288 192 m 1
 384 192 l 1
 384 96 l 1
 288 96 l 1
 288 192 l 1
384 96 m 1
 480 96 l 1
 480 0 l 1
 384 0 l 1
 384 96 l 1
EndSplineSet
EndChar

StartChar: equal
Encoding: 61 61 28
Width: 576
VWidth: 1056
Flags: HW
LayerCount: 2
Fore
SplineSet
0 576 m 1
 96 576 l 1
 192 576 l 1
 288 576 l 1
 384 576 l 1
 480 576 l 1
 480 480 l 1
 384 480 l 1
 288 480 l 1
 192 480 l 1
 96 480 l 1
 0 480 l 1
 0 576 l 1
0 384 m 1
 96 384 l 1
 192 384 l 1
 288 384 l 1
 384 384 l 1
 480 384 l 1
 480 288 l 1
 384 288 l 1
 288 288 l 1
 192 288 l 1
 96 288 l 1
 0 288 l 1
 0 384 l 1
EndSplineSet
EndChar

StartChar: greater
Encoding: 62 62 29
Width: 576
VWidth: 1056
Flags: HW
LayerCount: 2
Fore
SplineSet
0 864 m 1
 96 864 l 1
 96 768 l 1
 0 768 l 1
 0 864 l 1
96 768 m 1
 192 768 l 1
 192 672 l 1
 96 672 l 1
 96 768 l 1
192 672 m 1
 288 672 l 1
 288 576 l 1
 192 576 l 1
 192 672 l 1
288 576 m 1
 384 576 l 1
 384 480 l 1
 288 480 l 1
 288 576 l 1
384 480 m 1
 480 480 l 1
 480 384 l 1
 384 384 l 1
 384 480 l 1
384 384 m 1
 384 288 l 1
 288 288 l 1
 288 384 l 1
 384 384 l 1
288 288 m 1
 288 192 l 1
 192 192 l 1
 192 288 l 1
 288 288 l 1
192 192 m 1
 192 96 l 1
 96 96 l 1
 96 192 l 1
 192 192 l 1
96 96 m 1
 96 0 l 1
 0 0 l 1
 0 96 l 1
 96 96 l 1
EndSplineSet
EndChar

StartChar: question
Encoding: 63 63 30
Width: 576
VWidth: 1056
Flags: HW
LayerCount: 2
Fore
SplineSet
96 864 m 1
 192 864 l 1
 288 864 l 1
 384 864 l 1
 384 768 l 1
 288 768 l 1
 192 768 l 1
 96 768 l 1
 96 864 l 1
384 768 m 1
 480 768 l 1
 480 672 l 1
 480 576 l 1
 384 576 l 1
 384 672 l 1
 384 768 l 1
384 576 m 1
 384 480 l 1
 288 480 l 1
 288 576 l 1
 384 576 l 1
288 480 m 1
 288 384 l 1
 288 288 l 1
 288 192 l 1
 192 192 l 1
 192 288 l 1
 192 384 l 1
 192 480 l 1
 288 480 l 1
96 768 m 1
 96 672 l 1
 0 672 l 1
 0 768 l 1
 96 768 l 1
192 96 m 1
 288 96 l 1
 288 0 l 1
 192 0 l 1
 192 96 l 1
EndSplineSet
EndChar

StartChar: at
Encoding: 64 64 31
Width: 576
VWidth: 1056
Flags: HW
LayerCount: 2
Fore
SplineSet
0 480 m 1
 96 480 l 1
 192 480 l 1
 288 480 l 1
 384 480 l 1
 384 384 l 1
 384 288 l 1
 384 192 l 1
 288 192 l 1
 192 192 l 1
 192 288 l 1
 192 384 l 1
 96 384 l 1
 96 288 l 1
 96 192 l 1
 96 96 l 1
 192 96 l 1
 288 96 l 1
 384 96 l 1
 480 96 l 1
 480 0 l 1
 384 0 l 1
 288 0 l 1
 192 0 l 1
 96 0 l 1
 0 0 l 1
 0 96 l 1
 0 192 l 1
 0 288 l 1
 0 384 l 1
 0 480 l 1
EndSplineSet
EndChar

StartChar: A
Encoding: 65 65 32
Width: 576
VWidth: 1056
Flags: HW
LayerCount: 2
Fore
SplineSet
96 864 m 1
 192 864 l 1
 288 864 l 1
 384 864 l 1
 384 768 l 1
 288 768 l 1
 192 768 l 1
 96 768 l 1
 96 864 l 1
384 768 m 1
 480 768 l 1
 480 672 l 1
 480 576 l 1
 480 480 l 1
 480 384 l 1
 480 288 l 1
 480 192 l 1
 480 96 l 1
 480 0 l 1
 384 0 l 1
 384 96 l 1
 384 192 l 1
 384 288 l 1
 384 384 l 1
 288 384 l 1
 192 384 l 1
 96 384 l 1
 96 288 l 1
 96 192 l 1
 96 96 l 1
 96 0 l 1
 0 0 l 1
 0 96 l 1
 0 192 l 1
 0 288 l 1
 0 384 l 1
 0 480 l 1
 0 576 l 1
 0 672 l 1
 0 768 l 1
 96 768 l 1
 96 672 l 1
 96 576 l 1
 96 480 l 1
 192 480 l 1
 288 480 l 1
 384 480 l 1
 384 576 l 1
 384 672 l 1
 384 768 l 1
EndSplineSet
EndChar

StartChar: B
Encoding: 66 66 33
Width: 576
VWidth: 1056
Flags: HW
LayerCount: 2
Fore
SplineSet
0 864 m 1
 96 864 l 1
 192 864 l 1
 288 864 l 1
 384 864 l 1
 384 768 l 1
 288 768 l 1
 192 768 l 1
 96 768 l 1
 96 672 l 1
 96 576 l 1
 96 480 l 1
 192 480 l 1
 288 480 l 1
 384 480 l 1
 384 384 l 1
 288 384 l 1
 192 384 l 1
 96 384 l 1
 96 288 l 1
 96 192 l 1
 96 96 l 1
 192 96 l 1
 288 96 l 1
 384 96 l 1
 384 0 l 1
 288 0 l 1
 192 0 l 1
 96 0 l 1
 0 0 l 1
 0 96 l 1
 0 192 l 1
 0 288 l 1
 0 384 l 1
 0 480 l 1
 0 576 l 1
 0 672 l 1
 0 768 l 1
 0 864 l 1
384 768 m 1
 480 768 l 1
 480 672 l 1
 480 576 l 1
 480 480 l 1
 384 480 l 1
 384 576 l 1
 384 672 l 1
 384 768 l 1
384 384 m 1
 480 384 l 1
 480 288 l 1
 480 192 l 1
 480 96 l 1
 384 96 l 1
 384 192 l 1
 384 288 l 1
 384 384 l 1
EndSplineSet
EndChar

StartChar: C
Encoding: 67 67 34
Width: 576
VWidth: 1056
Flags: HW
LayerCount: 2
Fore
SplineSet
0 864 m 1
 96 864 l 1
 192 864 l 1
 288 864 l 1
 384 864 l 1
 480 864 l 1
 480 768 l 1
 384 768 l 1
 288 768 l 1
 192 768 l 1
 96 768 l 1
 96 672 l 1
 96 576 l 1
 96 480 l 1
 96 384 l 1
 96 288 l 1
 96 192 l 1
 96 96 l 1
 192 96 l 1
 288 96 l 1
 384 96 l 1
 480 96 l 1
 480 0 l 1
 384 0 l 1
 288 0 l 1
 192 0 l 1
 96 0 l 1
 0 0 l 1
 0 96 l 1
 0 192 l 1
 0 288 l 1
 0 384 l 1
 0 480 l 1
 0 576 l 1
 0 672 l 1
 0 768 l 1
 0 864 l 1
EndSplineSet
EndChar

StartChar: D
Encoding: 68 68 35
Width: 576
VWidth: 1056
Flags: HW
LayerCount: 2
Fore
SplineSet
0 864 m 1
 96 864 l 1
 192 864 l 1
 288 864 l 1
 384 864 l 1
 384 768 l 1
 288 768 l 1
 192 768 l 1
 96 768 l 1
 96 672 l 1
 96 576 l 1
 96 480 l 1
 96 384 l 1
 96 288 l 1
 96 192 l 1
 96 96 l 1
 192 96 l 1
 288 96 l 1
 384 96 l 1
 384 0 l 1
 288 0 l 1
 192 0 l 1
 96 0 l 1
 0 0 l 1
 0 96 l 1
 0 192 l 1
 0 288 l 1
 0 384 l 1
 0 480 l 1
 0 576 l 1
 0 672 l 1
 0 768 l 1
 0 864 l 1
384 768 m 1
 480 768 l 1
 480 672 l 1
 480 576 l 1
 480 480 l 1
 480 384 l 1
 480 288 l 1
 480 192 l 1
 480 96 l 1
 384 96 l 1
 384 192 l 1
 384 288 l 1
 384 384 l 1
 384 480 l 1
 384 576 l 1
 384 672 l 1
 384 768 l 1
EndSplineSet
EndChar

StartChar: k
Encoding: 107 107 36
Width: 576
VWidth: 1056
Flags: HW
LayerCount: 2
Fore
SplineSet
0 864 m 1
 96 864 l 1
 96 768 l 1
 96 672 l 1
 96 576 l 1
 96 480 l 1
 96 384 l 1
 96 288 l 1
 192 288 l 1
 288 288 l 1
 288 192 l 1
 192 192 l 1
 96 192 l 1
 96 96 l 1
 96 0 l 1
 0 0 l 1
 0 96 l 1
 0 192 l 1
 0 288 l 1
 0 384 l 1
 0 480 l 1
 0 576 l 1
 0 672 l 1
 0 768 l 1
 0 864 l 1
288 288 m 1
 288 384 l 1
 384 384 l 1
 384 288 l 1
 288 288 l 1
384 384 m 1
 384 480 l 1
 480 480 l 1
 480 384 l 1
 384 384 l 1
288 192 m 1
 384 192 l 1
 384 96 l 1
 288 96 l 1
 288 192 l 1
384 96 m 1
 480 96 l 1
 480 0 l 1
 384 0 l 1
 384 96 l 1
EndSplineSet
EndChar

StartChar: E
Encoding: 69 69 37
Width: 576
VWidth: 1056
Flags: HW
LayerCount: 2
Fore
SplineSet
0 864 m 1
 96 864 l 1
 192 864 l 1
 288 864 l 1
 384 864 l 1
 480 864 l 1
 480 768 l 1
 384 768 l 1
 288 768 l 1
 192 768 l 1
 96 768 l 1
 96 672 l 1
 96 576 l 1
 96 480 l 1
 192 480 l 1
 288 480 l 1
 384 480 l 1
 384 384 l 1
 288 384 l 1
 192 384 l 1
 96 384 l 1
 96 288 l 1
 96 192 l 1
 96 96 l 1
 192 96 l 1
 288 96 l 1
 384 96 l 1
 480 96 l 1
 480 0 l 1
 384 0 l 1
 288 0 l 1
 192 0 l 1
 96 0 l 1
 0 0 l 1
 0 96 l 1
 0 192 l 1
 0 288 l 1
 0 384 l 1
 0 480 l 1
 0 576 l 1
 0 672 l 1
 0 768 l 1
 0 864 l 1
EndSplineSet
EndChar

StartChar: F
Encoding: 70 70 38
Width: 576
VWidth: 1056
Flags: HW
LayerCount: 2
Fore
SplineSet
0 864 m 1
 96 864 l 1
 192 864 l 1
 288 864 l 1
 384 864 l 1
 480 864 l 1
 480 768 l 1
 384 768 l 1
 288 768 l 1
 192 768 l 1
 96 768 l 1
 96 672 l 1
 96 576 l 1
 96 480 l 1
 192 480 l 1
 288 480 l 1
 384 480 l 1
 384 384 l 1
 288 384 l 1
 192 384 l 1
 96 384 l 1
 96 288 l 1
 96 192 l 1
 96 96 l 1
 96 0 l 1
 0 0 l 1
 0 96 l 1
 0 192 l 1
 0 288 l 1
 0 384 l 1
 0 480 l 1
 0 576 l 1
 0 672 l 1
 0 768 l 1
 0 864 l 1
EndSplineSet
EndChar

StartChar: G
Encoding: 71 71 39
Width: 576
VWidth: 1056
Flags: HW
LayerCount: 2
Fore
SplineSet
0 864 m 1
 96 864 l 1
 192 864 l 1
 288 864 l 1
 384 864 l 1
 480 864 l 1
 480 768 l 1
 384 768 l 1
 288 768 l 1
 192 768 l 1
 96 768 l 1
 96 672 l 1
 96 576 l 1
 96 480 l 1
 96 384 l 1
 96 288 l 1
 96 192 l 1
 96 96 l 1
 192 96 l 1
 288 96 l 1
 384 96 l 1
 384 192 l 1
 384 288 l 1
 384 384 l 1
 288 384 l 1
 192 384 l 1
 192 480 l 1
 288 480 l 1
 384 480 l 1
 480 480 l 1
 480 384 l 1
 480 288 l 1
 480 192 l 1
 480 96 l 1
 480 0 l 1
 384 0 l 1
 288 0 l 1
 192 0 l 1
 96 0 l 1
 0 0 l 1
 0 96 l 1
 0 192 l 1
 0 288 l 1
 0 384 l 1
 0 480 l 1
 0 576 l 1
 0 672 l 1
 0 768 l 1
 0 864 l 1
EndSplineSet
EndChar

StartChar: H
Encoding: 72 72 40
Width: 576
VWidth: 1056
Flags: HW
LayerCount: 2
Fore
SplineSet
0 864 m 1
 96 864 l 1
 96 768 l 1
 96 672 l 1
 96 576 l 1
 96 480 l 1
 192 480 l 1
 288 480 l 1
 384 480 l 1
 384 576 l 1
 384 672 l 1
 384 768 l 1
 384 864 l 1
 480 864 l 1
 480 768 l 1
 480 672 l 1
 480 576 l 1
 480 480 l 1
 480 384 l 1
 480 288 l 1
 480 192 l 1
 480 96 l 1
 480 0 l 1
 384 0 l 1
 384 96 l 1
 384 192 l 1
 384 288 l 1
 384 384 l 1
 288 384 l 1
 192 384 l 1
 96 384 l 1
 96 288 l 1
 96 192 l 1
 96 96 l 1
 96 0 l 1
 0 0 l 1
 0 96 l 1
 0 192 l 1
 0 288 l 1
 0 384 l 1
 0 480 l 1
 0 576 l 1
 0 672 l 1
 0 768 l 1
 0 864 l 1
EndSplineSet
EndChar

StartChar: I
Encoding: 73 73 41
Width: 576
VWidth: 1056
Flags: HW
LayerCount: 2
Fore
SplineSet
0 864 m 1
 96 864 l 1
 192 864 l 1
 288 864 l 1
 384 864 l 1
 480 864 l 1
 480 768 l 1
 384 768 l 1
 288 768 l 1
 288 672 l 1
 288 576 l 1
 288 480 l 1
 288 384 l 1
 288 288 l 1
 288 192 l 1
 288 96 l 1
 384 96 l 1
 480 96 l 1
 480 0 l 1
 384 0 l 1
 288 0 l 1
 192 0 l 1
 96 0 l 1
 0 0 l 1
 0 96 l 1
 96 96 l 1
 192 96 l 1
 192 192 l 1
 192 288 l 1
 192 384 l 1
 192 480 l 1
 192 576 l 1
 192 672 l 1
 192 768 l 1
 96 768 l 1
 0 768 l 1
 0 864 l 1
EndSplineSet
EndChar

StartChar: J
Encoding: 74 74 42
Width: 576
VWidth: 1056
Flags: HW
LayerCount: 2
Fore
SplineSet
384 864 m 1
 480 864 l 1
 480 768 l 1
 480 672 l 1
 480 576 l 1
 480 480 l 1
 480 384 l 1
 480 288 l 1
 480 192 l 1
 480 96 l 1
 480 0 l 1
 384 0 l 1
 288 0 l 1
 192 0 l 1
 96 0 l 1
 0 0 l 1
 0 96 l 1
 0 192 l 1
 96 192 l 1
 96 96 l 1
 192 96 l 1
 288 96 l 1
 384 96 l 1
 384 192 l 1
 384 288 l 1
 384 384 l 1
 384 480 l 1
 384 576 l 1
 384 672 l 1
 384 768 l 1
 384 864 l 1
EndSplineSet
EndChar

StartChar: K
Encoding: 75 75 43
Width: 576
VWidth: 1056
Flags: HW
LayerCount: 2
Fore
SplineSet
0 864 m 1
 96 864 l 1
 96 768 l 1
 96 672 l 1
 96 576 l 1
 96 480 l 1
 192 480 l 1
 288 480 l 1
 288 384 l 1
 192 384 l 1
 96 384 l 1
 96 288 l 1
 96 192 l 1
 96 96 l 1
 96 0 l 1
 0 0 l 1
 0 96 l 1
 0 192 l 1
 0 288 l 1
 0 384 l 1
 0 480 l 1
 0 576 l 1
 0 672 l 1
 0 768 l 1
 0 864 l 1
288 480 m 1
 288 576 l 1
 384 576 l 1
 384 480 l 1
 288 480 l 1
384 576 m 1
 384 672 l 1
 384 768 l 1
 384 864 l 1
 480 864 l 1
 480 768 l 1
 480 672 l 1
 480 576 l 1
 384 576 l 1
288 384 m 1
 384 384 l 1
 384 288 l 1
 288 288 l 1
 288 384 l 1
384 288 m 1
 480 288 l 1
 480 192 l 1
 480 96 l 1
 480 0 l 1
 384 0 l 1
 384 96 l 1
 384 192 l 1
 384 288 l 1
EndSplineSet
EndChar

StartChar: L
Encoding: 76 76 44
Width: 576
VWidth: 1056
Flags: HW
LayerCount: 2
Fore
SplineSet
0 864 m 1
 96 864 l 1
 96 768 l 1
 96 672 l 1
 96 576 l 1
 96 480 l 1
 96 384 l 1
 96 288 l 1
 96 192 l 1
 96 96 l 1
 192 96 l 1
 288 96 l 1
 384 96 l 1
 480 96 l 1
 480 0 l 1
 384 0 l 1
 288 0 l 1
 192 0 l 1
 96 0 l 1
 0 0 l 1
 0 96 l 1
 0 192 l 1
 0 288 l 1
 0 384 l 1
 0 480 l 1
 0 576 l 1
 0 672 l 1
 0 768 l 1
 0 864 l 1
EndSplineSet
EndChar

StartChar: M
Encoding: 77 77 45
Width: 576
VWidth: 1056
Flags: HW
LayerCount: 2
Fore
SplineSet
0 864 m 1
 96 864 l 1
 96 768 l 1
 192 768 l 1
 192 672 l 1
 96 672 l 1
 96 576 l 1
 96 480 l 1
 96 384 l 1
 96 288 l 1
 96 192 l 1
 96 96 l 1
 96 0 l 1
 0 0 l 1
 0 96 l 1
 0 192 l 1
 0 288 l 1
 0 384 l 1
 0 480 l 1
 0 576 l 1
 0 672 l 1
 0 768 l 1
 0 864 l 1
192 672 m 1
 288 672 l 1
 288 576 l 1
 192 576 l 1
 192 672 l 1
288 672 m 1
 288 768 l 1
 384 768 l 1
 384 864 l 1
 480 864 l 1
 480 768 l 1
 480 672 l 1
 480 576 l 1
 480 480 l 1
 480 384 l 1
 480 288 l 1
 480 192 l 1
 480 96 l 1
 480 0 l 1
 384 0 l 1
 384 96 l 1
 384 192 l 1
 384 288 l 1
 384 384 l 1
 384 480 l 1
 384 576 l 1
 384 672 l 1
 288 672 l 1
EndSplineSet
EndChar

StartChar: N
Encoding: 78 78 46
Width: 576
VWidth: 1056
Flags: HW
LayerCount: 2
Fore
SplineSet
0 864 m 1
 96 864 l 1
 96 768 l 1
 192 768 l 1
 192 672 l 1
 96 672 l 1
 96 576 l 1
 96 480 l 1
 96 384 l 1
 96 288 l 1
 96 192 l 1
 96 96 l 1
 96 0 l 1
 0 0 l 1
 0 96 l 1
 0 192 l 1
 0 288 l 1
 0 384 l 1
 0 480 l 1
 0 576 l 1
 0 672 l 1
 0 768 l 1
 0 864 l 1
192 672 m 1
 288 672 l 1
 288 576 l 1
 192 576 l 1
 192 672 l 1
288 576 m 1
 384 576 l 1
 384 672 l 1
 384 768 l 1
 384 864 l 1
 480 864 l 1
 480 768 l 1
 480 672 l 1
 480 576 l 1
 480 480 l 1
 480 384 l 1
 480 288 l 1
 480 192 l 1
 480 96 l 1
 480 0 l 1
 384 0 l 1
 384 96 l 1
 384 192 l 1
 384 288 l 1
 384 384 l 1
 384 480 l 1
 288 480 l 1
 288 576 l 1
EndSplineSet
EndChar

StartChar: O
Encoding: 79 79 47
Width: 576
VWidth: 1056
Flags: HW
LayerCount: 2
Fore
SplineSet
0 864 m 1
 96 864 l 1
 192 864 l 1
 288 864 l 1
 384 864 l 1
 480 864 l 1
 480 768 l 1
 480 672 l 1
 480 576 l 1
 480 480 l 1
 480 384 l 1
 480 288 l 1
 480 192 l 1
 480 96 l 1
 480 0 l 1
 384 0 l 1
 288 0 l 1
 192 0 l 1
 96 0 l 1
 0 0 l 1
 0 96 l 1
 0 192 l 1
 0 288 l 1
 0 384 l 1
 0 480 l 1
 0 576 l 1
 0 672 l 1
 0 768 l 1
 0 864 l 1
96 768 m 1
 96 672 l 1
 96 576 l 1
 96 480 l 1
 96 384 l 1
 96 288 l 1
 96 192 l 1
 96 96 l 1
 192 96 l 1
 288 96 l 1
 384 96 l 1
 384 192 l 1
 384 288 l 1
 384 384 l 1
 384 480 l 1
 384 576 l 1
 384 672 l 1
 384 768 l 1
 288 768 l 1
 192 768 l 1
 96 768 l 1
EndSplineSet
EndChar

StartChar: Q
Encoding: 81 81 48
Width: 576
VWidth: 1056
Flags: HW
LayerCount: 2
Fore
SplineSet
0 864 m 1
 96 864 l 1
 192 864 l 1
 288 864 l 1
 384 864 l 1
 480 864 l 1
 480 768 l 1
 480 672 l 1
 480 576 l 1
 480 480 l 1
 480 384 l 1
 480 288 l 1
 480 192 l 1
 384 192 l 1
 384 288 l 1
 384 384 l 1
 384 480 l 1
 384 576 l 1
 384 672 l 1
 384 768 l 1
 288 768 l 1
 192 768 l 1
 96 768 l 1
 96 672 l 1
 96 576 l 1
 96 480 l 1
 96 384 l 1
 96 288 l 1
 96 192 l 1
 96 96 l 1
 192 96 l 1
 288 96 l 1
 288 0 l 1
 192 0 l 1
 96 0 l 1
 0 0 l 1
 0 96 l 1
 0 192 l 1
 0 288 l 1
 0 384 l 1
 0 480 l 1
 0 576 l 1
 0 672 l 1
 0 768 l 1
 0 864 l 1
384 192 m 1
 384 96 l 1
 288 96 l 1
 288 192 l 1
 384 192 l 1
384 96 m 1
 480 96 l 1
 480 0 l 1
 384 0 l 1
 384 96 l 1
288 192 m 1
 192 192 l 1
 192 288 l 1
 288 288 l 1
 288 192 l 1
EndSplineSet
EndChar

StartChar: P
Encoding: 80 80 49
Width: 576
VWidth: 1056
Flags: HW
LayerCount: 2
Fore
SplineSet
0 864 m 1
 96 864 l 1
 192 864 l 1
 288 864 l 1
 384 864 l 1
 480 864 l 1
 480 768 l 1
 480 672 l 1
 480 576 l 1
 480 480 l 1
 480 384 l 1
 384 384 l 1
 288 384 l 1
 192 384 l 1
 96 384 l 1
 96 288 l 1
 96 192 l 1
 96 96 l 1
 96 0 l 1
 0 0 l 1
 0 96 l 1
 0 192 l 1
 0 288 l 1
 0 384 l 1
 0 480 l 1
 0 576 l 1
 0 672 l 1
 0 768 l 1
 0 864 l 1
96 768 m 1
 96 672 l 1
 96 576 l 1
 96 480 l 1
 192 480 l 1
 288 480 l 1
 384 480 l 1
 384 576 l 1
 384 672 l 1
 384 768 l 1
 288 768 l 1
 192 768 l 1
 96 768 l 1
EndSplineSet
EndChar

StartChar: R
Encoding: 82 82 50
Width: 576
VWidth: 1056
Flags: HW
LayerCount: 2
Fore
SplineSet
0 864 m 1
 96 864 l 1
 192 864 l 1
 288 864 l 1
 384 864 l 1
 480 864 l 1
 480 768 l 1
 480 672 l 1
 480 576 l 1
 480 480 l 1
 480 384 l 1
 384 384 l 1
 288 384 l 1
 192 384 l 1
 192 288 l 1
 96 288 l 1
 96 192 l 1
 96 96 l 1
 96 0 l 1
 0 0 l 1
 0 96 l 1
 0 192 l 1
 0 288 l 1
 0 384 l 1
 0 480 l 1
 0 576 l 1
 0 672 l 1
 0 768 l 1
 0 864 l 1
192 288 m 1
 288 288 l 1
 288 192 l 1
 192 192 l 1
 192 288 l 1
288 192 m 1
 384 192 l 1
 384 96 l 1
 288 96 l 1
 288 192 l 1
384 96 m 1
 480 96 l 1
 480 0 l 1
 384 0 l 1
 384 96 l 1
96 768 m 1
 96 672 l 1
 96 576 l 1
 96 480 l 1
 192 480 l 1
 288 480 l 1
 384 480 l 1
 384 576 l 1
 384 672 l 1
 384 768 l 1
 288 768 l 1
 192 768 l 1
 96 768 l 1
EndSplineSet
EndChar

StartChar: S
Encoding: 83 83 51
Width: 576
VWidth: 1056
Flags: HW
LayerCount: 2
Fore
SplineSet
0 864 m 1
 96 864 l 1
 192 864 l 1
 288 864 l 1
 384 864 l 1
 480 864 l 1
 480 768 l 1
 384 768 l 1
 288 768 l 1
 192 768 l 1
 96 768 l 1
 96 672 l 1
 96 576 l 1
 96 480 l 1
 192 480 l 1
 288 480 l 1
 384 480 l 1
 480 480 l 1
 480 384 l 1
 480 288 l 1
 480 192 l 1
 480 96 l 1
 480 0 l 1
 384 0 l 1
 288 0 l 1
 192 0 l 1
 96 0 l 1
 0 0 l 1
 0 96 l 1
 96 96 l 1
 192 96 l 1
 288 96 l 1
 384 96 l 1
 384 192 l 1
 384 288 l 1
 384 384 l 1
 288 384 l 1
 192 384 l 1
 96 384 l 1
 0 384 l 1
 0 480 l 1
 0 576 l 1
 0 672 l 1
 0 768 l 1
 0 864 l 1
EndSplineSet
EndChar

StartChar: T
Encoding: 84 84 52
Width: 576
VWidth: 1056
Flags: HW
LayerCount: 2
Fore
SplineSet
0 864 m 1
 96 864 l 1
 192 864 l 1
 288 864 l 1
 384 864 l 1
 480 864 l 1
 480 768 l 1
 384 768 l 1
 288 768 l 1
 288 672 l 1
 288 576 l 1
 288 480 l 1
 288 384 l 1
 288 288 l 1
 288 192 l 1
 288 96 l 1
 288 0 l 1
 192 0 l 1
 192 96 l 1
 192 192 l 1
 192 288 l 1
 192 384 l 1
 192 480 l 1
 192 576 l 1
 192 672 l 1
 192 768 l 1
 96 768 l 1
 0 768 l 1
 0 864 l 1
EndSplineSet
EndChar

StartChar: U
Encoding: 85 85 53
Width: 576
VWidth: 1056
Flags: HW
LayerCount: 2
Fore
SplineSet
0 864 m 1
 96 864 l 1
 96 768 l 1
 96 672 l 1
 96 576 l 1
 96 480 l 1
 96 384 l 1
 96 288 l 1
 96 192 l 1
 96 96 l 1
 192 96 l 1
 288 96 l 1
 384 96 l 1
 384 192 l 1
 384 288 l 1
 384 384 l 1
 384 480 l 1
 384 576 l 1
 384 672 l 1
 384 768 l 1
 384 864 l 1
 480 864 l 1
 480 768 l 1
 480 672 l 1
 480 576 l 1
 480 480 l 1
 480 384 l 1
 480 288 l 1
 480 192 l 1
 480 96 l 1
 480 0 l 1
 384 0 l 1
 288 0 l 1
 192 0 l 1
 96 0 l 1
 0 0 l 1
 0 96 l 1
 0 192 l 1
 0 288 l 1
 0 384 l 1
 0 480 l 1
 0 576 l 1
 0 672 l 1
 0 768 l 1
 0 864 l 1
EndSplineSet
EndChar

StartChar: V
Encoding: 86 86 54
Width: 576
VWidth: 1056
Flags: HW
LayerCount: 2
Fore
SplineSet
0 864 m 1
 96 864 l 1
 96 768 l 1
 96 672 l 1
 96 576 l 1
 96 480 l 1
 96 384 l 1
 96 288 l 1
 96 192 l 1
 0 192 l 1
 0 288 l 1
 0 384 l 1
 0 480 l 1
 0 576 l 1
 0 672 l 1
 0 768 l 1
 0 864 l 1
96 192 m 1
 192 192 l 1
 192 96 l 1
 96 96 l 1
 96 192 l 1
192 96 m 1
 288 96 l 1
 288 0 l 1
 192 0 l 1
 192 96 l 1
288 96 m 1
 288 192 l 1
 384 192 l 1
 384 96 l 1
 288 96 l 1
384 192 m 1
 384 288 l 1
 384 384 l 1
 384 480 l 1
 384 576 l 1
 384 672 l 1
 384 768 l 1
 384 864 l 1
 480 864 l 1
 480 768 l 1
 480 672 l 1
 480 576 l 1
 480 480 l 1
 480 384 l 1
 480 288 l 1
 480 192 l 1
 384 192 l 1
EndSplineSet
EndChar

StartChar: W
Encoding: 87 87 55
Width: 576
VWidth: 1056
Flags: HW
LayerCount: 2
Fore
SplineSet
0 864 m 1
 96 864 l 1
 96 768 l 1
 96 672 l 1
 96 576 l 1
 96 480 l 1
 96 384 l 1
 96 288 l 1
 96 192 l 1
 192 192 l 1
 192 96 l 1
 96 96 l 1
 96 0 l 1
 0 0 l 1
 0 96 l 1
 0 192 l 1
 0 288 l 1
 0 384 l 1
 0 480 l 1
 0 576 l 1
 0 672 l 1
 0 768 l 1
 0 864 l 1
192 192 m 1
 192 288 l 1
 288 288 l 1
 288 192 l 1
 192 192 l 1
288 192 m 1
 384 192 l 1
 384 288 l 1
 384 384 l 1
 384 480 l 1
 384 576 l 1
 384 672 l 1
 384 768 l 1
 384 864 l 1
 480 864 l 1
 480 768 l 1
 480 672 l 1
 480 576 l 1
 480 480 l 1
 480 384 l 1
 480 288 l 1
 480 192 l 1
 480 96 l 1
 480 0 l 1
 384 0 l 1
 384 96 l 1
 288 96 l 1
 288 192 l 1
EndSplineSet
EndChar

StartChar: X
Encoding: 88 88 56
Width: 576
VWidth: 1056
Flags: HW
LayerCount: 2
Fore
SplineSet
0 864 m 1
 96 864 l 1
 96 768 l 1
 96 672 l 1
 96 576 l 1
 0 576 l 1
 0 672 l 1
 0 768 l 1
 0 864 l 1
96 576 m 1
 192 576 l 1
 192 480 l 1
 96 480 l 1
 96 576 l 1
192 480 m 1
 288 480 l 1
 288 384 l 1
 192 384 l 1
 192 480 l 1
288 480 m 1
 288 576 l 1
 384 576 l 1
 384 480 l 1
 288 480 l 1
384 576 m 1
 384 672 l 1
 384 768 l 1
 384 864 l 1
 480 864 l 1
 480 768 l 1
 480 672 l 1
 480 576 l 1
 384 576 l 1
288 384 m 1
 384 384 l 1
 384 288 l 1
 288 288 l 1
 288 384 l 1
384 288 m 1
 480 288 l 1
 480 192 l 1
 480 96 l 1
 480 0 l 1
 384 0 l 1
 384 96 l 1
 384 192 l 1
 384 288 l 1
192 384 m 1
 192 288 l 1
 96 288 l 1
 96 384 l 1
 192 384 l 1
96 288 m 1
 96 192 l 1
 96 96 l 1
 96 0 l 1
 0 0 l 1
 0 96 l 1
 0 192 l 1
 0 288 l 1
 96 288 l 1
EndSplineSet
EndChar

StartChar: Y
Encoding: 89 89 57
Width: 576
VWidth: 1056
Flags: HW
LayerCount: 2
Fore
SplineSet
0 864 m 1
 96 864 l 1
 96 768 l 1
 96 672 l 1
 0 672 l 1
 0 768 l 1
 0 864 l 1
96 672 m 1
 192 672 l 1
 192 576 l 1
 192 480 l 1
 96 480 l 1
 96 576 l 1
 96 672 l 1
192 480 m 1
 288 480 l 1
 288 384 l 1
 288 288 l 1
 288 192 l 1
 288 96 l 1
 288 0 l 1
 192 0 l 1
 192 96 l 1
 192 192 l 1
 192 288 l 1
 192 384 l 1
 192 480 l 1
288 480 m 1
 288 576 l 1
 288 672 l 1
 384 672 l 1
 384 576 l 1
 384 480 l 1
 288 480 l 1
384 672 m 1
 384 768 l 1
 384 864 l 1
 480 864 l 1
 480 768 l 1
 480 672 l 1
 384 672 l 1
EndSplineSet
EndChar

StartChar: Z
Encoding: 90 90 58
Width: 576
VWidth: 1296
Flags: HW
LayerCount: 2
Fore
SplineSet
0 864 m 1
 96 864 l 1
 192 864 l 1
 288 864 l 1
 384 864 l 1
 480 864 l 1
 480 768 l 1
 480 672 l 1
 480 576 l 1
 384 576 l 1
 384 672 l 1
 384 768 l 1
 288 768 l 1
 192 768 l 1
 96 768 l 1
 0 768 l 1
 0 864 l 1
384 576 m 1
 384 480 l 1
 288 480 l 1
 288 576 l 1
 384 576 l 1
288 480 m 1
 288 384 l 1
 192 384 l 1
 192 480 l 1
 288 480 l 1
192 384 m 1
 192 288 l 1
 96 288 l 1
 96 384 l 1
 192 384 l 1
96 288 m 1
 96 192 l 1
 96 96 l 1
 192 96 l 1
 288 96 l 1
 384 96 l 1
 480 96 l 1
 480 0 l 1
 384 0 l 1
 288 0 l 1
 192 0 l 1
 96 0 l 1
 0 0 l 1
 0 96 l 1
 0 192 l 1
 0 288 l 1
 96 288 l 1
EndSplineSet
EndChar

StartChar: bracketleft
Encoding: 91 91 59
Width: 576
VWidth: 1296
Flags: HW
LayerCount: 2
Fore
SplineSet
0 864 m 1
 96 864 l 1
 192 864 l 1
 288 864 l 1
 288 768 l 1
 192 768 l 1
 96 768 l 1
 96 672 l 1
 96 576 l 1
 96 480 l 1
 96 384 l 1
 96 288 l 1
 96 192 l 1
 96 96 l 1
 192 96 l 1
 288 96 l 1
 288 0 l 1
 192 0 l 1
 96 0 l 1
 0 0 l 1
 0 96 l 1
 0 192 l 1
 0 288 l 1
 0 384 l 1
 0 480 l 1
 0 576 l 1
 0 672 l 1
 0 768 l 1
 0 864 l 1
EndSplineSet
EndChar

StartChar: backslash
Encoding: 92 92 60
Width: 576
VWidth: 1296
Flags: HW
LayerCount: 2
Fore
SplineSet
0 864 m 1
 96 864 l 1
 96 768 l 1
 0 768 l 1
 0 864 l 1
96 768 m 1
 192 768 l 1
 192 672 l 1
 192 576 l 1
 96 576 l 1
 96 672 l 1
 96 768 l 1
192 576 m 1
 288 576 l 1
 288 480 l 1
 288 384 l 1
 288 288 l 1
 192 288 l 1
 192 384 l 1
 192 480 l 1
 192 576 l 1
288 288 m 1
 384 288 l 1
 384 192 l 1
 384 96 l 1
 288 96 l 1
 288 192 l 1
 288 288 l 1
384 96 m 1
 480 96 l 1
 480 0 l 1
 384 0 l 1
 384 96 l 1
EndSplineSet
EndChar

StartChar: bracketright
Encoding: 93 93 61
Width: 576
VWidth: 1296
Flags: HW
LayerCount: 2
Fore
SplineSet
0 864 m 1
 96 864 l 1
 192 864 l 1
 288 864 l 1
 288 768 l 1
 288 672 l 1
 288 576 l 1
 288 480 l 1
 288 384 l 1
 288 288 l 1
 288 192 l 1
 288 96 l 1
 288 0 l 1
 192 0 l 1
 96 0 l 1
 0 0 l 1
 0 96 l 1
 96 96 l 1
 192 96 l 1
 192 192 l 1
 192 288 l 1
 192 384 l 1
 192 480 l 1
 192 576 l 1
 192 672 l 1
 192 768 l 1
 96 768 l 1
 0 768 l 1
 0 864 l 1
EndSplineSet
EndChar

StartChar: asciicircum
Encoding: 94 94 62
Width: 576
VWidth: 1296
Flags: HW
LayerCount: 2
Fore
SplineSet
192 864 m 1
 288 864 l 1
 288 768 l 1
 192 768 l 1
 192 864 l 1
288 768 m 1
 384 768 l 1
 384 672 l 1
 288 672 l 1
 288 768 l 1
384 672 m 1
 480 672 l 1
 480 576 l 1
 384 576 l 1
 384 672 l 1
192 768 m 1
 192 672 l 1
 96 672 l 1
 96 768 l 1
 192 768 l 1
96 672 m 1
 96 576 l 1
 0 576 l 1
 0 672 l 1
 96 672 l 1
EndSplineSet
EndChar

StartChar: underscore
Encoding: 95 95 63
Width: 576
VWidth: 1296
Flags: HW
LayerCount: 2
Fore
SplineSet
0 96 m 1
 96 96 l 1
 192 96 l 1
 288 96 l 1
 384 96 l 1
 480 96 l 1
 480 0 l 1
 384 0 l 1
 288 0 l 1
 192 0 l 1
 96 0 l 1
 0 0 l 1
 0 96 l 1
EndSplineSet
EndChar

StartChar: grave
Encoding: 96 96 64
Width: 288
VWidth: 1296
Flags: HW
LayerCount: 2
Fore
SplineSet
0 864 m 1
 96 864 l 1
 96 768 l 1
 0 768 l 1
 0 864 l 1
96 768 m 1
 192 768 l 1
 192 672 l 1
 96 672 l 1
 96 768 l 1
EndSplineSet
EndChar

StartChar: a
Encoding: 97 97 65
Width: 576
VWidth: 1296
Flags: HW
LayerCount: 2
Fore
SplineSet
0 480 m 1
 96 480 l 1
 192 480 l 1
 288 480 l 1
 384 480 l 1
 480 480 l 1
 480 384 l 1
 480 288 l 1
 480 192 l 1
 480 96 l 1
 480 0 l 1
 384 0 l 1
 288 0 l 1
 192 0 l 1
 96 0 l 1
 0 0 l 1
 0 96 l 1
 0 192 l 1
 0 288 l 1
 96 288 l 1
 192 288 l 1
 288 288 l 1
 384 288 l 1
 384 384 l 1
 288 384 l 1
 192 384 l 1
 96 384 l 1
 0 384 l 1
 0 480 l 1
96 192 m 1
 96 96 l 1
 192 96 l 1
 288 96 l 1
 384 96 l 1
 384 192 l 1
 288 192 l 1
 192 192 l 1
 96 192 l 1
EndSplineSet
EndChar

StartChar: b
Encoding: 98 98 66
Width: 576
VWidth: 1296
Flags: HW
LayerCount: 2
Fore
SplineSet
0 864 m 1
 96 864 l 1
 96 768 l 1
 96 672 l 1
 96 576 l 1
 96 480 l 1
 192 480 l 1
 288 480 l 1
 384 480 l 1
 480 480 l 1
 480 384 l 1
 480 288 l 1
 480 192 l 1
 480 96 l 1
 480 0 l 1
 384 0 l 1
 288 0 l 1
 192 0 l 1
 96 0 l 1
 0 0 l 1
 0 96 l 1
 0 192 l 1
 0 288 l 1
 0 384 l 1
 0 480 l 1
 0 576 l 1
 0 672 l 1
 0 768 l 1
 0 864 l 1
96 384 m 1
 96 288 l 1
 96 192 l 1
 96 96 l 1
 192 96 l 1
 288 96 l 1
 384 96 l 1
 384 192 l 1
 384 288 l 1
 384 384 l 1
 288 384 l 1
 192 384 l 1
 96 384 l 1
EndSplineSet
EndChar

StartChar: c
Encoding: 99 99 67
Width: 576
VWidth: 1296
Flags: HW
LayerCount: 2
Fore
SplineSet
0 480 m 1
 96 480 l 1
 192 480 l 1
 288 480 l 1
 384 480 l 1
 480 480 l 1
 480 384 l 1
 384 384 l 1
 288 384 l 1
 192 384 l 1
 96 384 l 1
 96 288 l 1
 96 192 l 1
 96 96 l 1
 192 96 l 1
 288 96 l 1
 384 96 l 1
 480 96 l 1
 480 0 l 1
 384 0 l 1
 288 0 l 1
 192 0 l 1
 96 0 l 1
 0 0 l 1
 0 96 l 1
 0 192 l 1
 0 288 l 1
 0 384 l 1
 0 480 l 1
EndSplineSet
EndChar

StartChar: d
Encoding: 100 100 68
Width: 576
VWidth: 1296
Flags: HW
LayerCount: 2
Fore
SplineSet
384 864 m 1
 480 864 l 1
 480 768 l 1
 480 672 l 1
 480 576 l 1
 480 480 l 1
 480 384 l 1
 480 288 l 1
 480 192 l 1
 480 96 l 1
 480 0 l 1
 384 0 l 1
 288 0 l 1
 192 0 l 1
 96 0 l 1
 0 0 l 1
 0 96 l 1
 0 192 l 1
 0 288 l 1
 0 384 l 1
 0 480 l 1
 96 480 l 1
 192 480 l 1
 288 480 l 1
 384 480 l 1
 384 576 l 1
 384 672 l 1
 384 768 l 1
 384 864 l 1
96 384 m 1
 96 288 l 1
 96 192 l 1
 96 96 l 1
 192 96 l 1
 288 96 l 1
 384 96 l 1
 384 192 l 1
 384 288 l 1
 384 384 l 1
 288 384 l 1
 192 384 l 1
 96 384 l 1
EndSplineSet
EndChar

StartChar: e
Encoding: 101 101 69
Width: 576
VWidth: 1296
Flags: HW
LayerCount: 2
Fore
SplineSet
0 480 m 1
 96 480 l 1
 192 480 l 1
 288 480 l 1
 384 480 l 1
 480 480 l 1
 480 384 l 1
 480 288 l 1
 480 192 l 1
 384 192 l 1
 288 192 l 1
 192 192 l 1
 96 192 l 1
 96 96 l 1
 192 96 l 1
 288 96 l 1
 384 96 l 1
 480 96 l 1
 480 0 l 1
 384 0 l 1
 288 0 l 1
 192 0 l 1
 96 0 l 1
 0 0 l 1
 0 96 l 1
 0 192 l 1
 0 288 l 1
 0 384 l 1
 0 480 l 1
96 384 m 1
 96 288 l 1
 192 288 l 1
 288 288 l 1
 384 288 l 1
 384 384 l 1
 288 384 l 1
 192 384 l 1
 96 384 l 1
EndSplineSet
EndChar

StartChar: f
Encoding: 102 102 70
Width: 576
VWidth: 1296
Flags: HW
LayerCount: 2
Fore
SplineSet
192 864 m 1
 288 864 l 1
 384 864 l 1
 480 864 l 1
 480 768 l 1
 384 768 l 1
 288 768 l 1
 288 672 l 1
 288 576 l 1
 384 576 l 1
 480 576 l 1
 480 480 l 1
 384 480 l 1
 288 480 l 1
 288 384 l 1
 288 288 l 1
 288 192 l 1
 288 96 l 1
 288 0 l 1
 192 0 l 1
 192 96 l 1
 192 192 l 1
 192 288 l 1
 192 384 l 1
 192 480 l 1
 96 480 l 1
 0 480 l 1
 0 576 l 1
 96 576 l 1
 192 576 l 1
 192 672 l 1
 192 768 l 1
 192 864 l 1
EndSplineSet
EndChar

StartChar: g
Encoding: 103 103 71
Width: 576
VWidth: 1296
Flags: HW
LayerCount: 2
Fore
SplineSet
0 480 m 1
 96 480 l 1
 192 480 l 1
 288 480 l 1
 384 480 l 1
 480 480 l 1
 480 384 l 1
 480 288 l 1
 480 192 l 1
 480 96 l 1
 480 0 l 1
 480 -96 l 1
 480 -192 l 1
 480 -288 l 1
 480 -384 l 1
 384 -384 l 1
 288 -384 l 1
 192 -384 l 1
 96 -384 l 1
 0 -384 l 1
 0 -288 l 1
 96 -288 l 1
 192 -288 l 1
 288 -288 l 1
 384 -288 l 1
 384 -192 l 1
 384 -96 l 1
 384 0 l 1
 288 0 l 1
 192 0 l 1
 96 0 l 1
 0 0 l 1
 0 96 l 1
 0 192 l 1
 0 288 l 1
 0 384 l 1
 0 480 l 1
96 384 m 1
 96 288 l 1
 96 192 l 1
 96 96 l 1
 192 96 l 1
 288 96 l 1
 384 96 l 1
 384 192 l 1
 384 288 l 1
 384 384 l 1
 288 384 l 1
 192 384 l 1
 96 384 l 1
EndSplineSet
EndChar

StartChar: h
Encoding: 104 104 72
Width: 576
VWidth: 1296
Flags: HW
LayerCount: 2
Fore
SplineSet
0 864 m 1
 96 864 l 1
 96 768 l 1
 96 672 l 1
 96 576 l 1
 96 480 l 1
 192 480 l 1
 288 480 l 1
 384 480 l 1
 480 480 l 1
 480 384 l 1
 480 288 l 1
 480 192 l 1
 480 96 l 1
 480 0 l 1
 384 0 l 1
 384 96 l 1
 384 192 l 1
 384 288 l 1
 384 384 l 1
 288 384 l 1
 192 384 l 1
 96 384 l 1
 96 288 l 1
 96 192 l 1
 96 96 l 1
 96 0 l 1
 0 0 l 1
 0 96 l 1
 0 192 l 1
 0 288 l 1
 0 384 l 1
 0 480 l 1
 0 576 l 1
 0 672 l 1
 0 768 l 1
 0 864 l 1
EndSplineSet
EndChar

StartChar: i
Encoding: 105 105 73
Width: 192
VWidth: 1296
Flags: HW
LayerCount: 2
Fore
SplineSet
0 672 m 1
 96 672 l 1
 96 576 l 1
 0 576 l 1
 0 672 l 1
0 480 m 1
 96 480 l 1
 96 384 l 1
 96 288 l 1
 96 192 l 1
 96 96 l 1
 96 0 l 1
 0 0 l 1
 0 96 l 1
 0 192 l 1
 0 288 l 1
 0 384 l 1
 0 480 l 1
EndSplineSet
EndChar

StartChar: j
Encoding: 106 106 74
Width: 576
VWidth: 1296
Flags: HW
LayerCount: 2
Fore
SplineSet
384 672 m 1
 480 672 l 1
 480 576 l 1
 384 576 l 1
 384 672 l 1
384 480 m 1
 480 480 l 1
 480 384 l 1
 480 288 l 1
 480 192 l 1
 480 96 l 1
 480 0 l 1
 480 -96 l 1
 480 -192 l 1
 384 -192 l 1
 288 -192 l 1
 192 -192 l 1
 96 -192 l 1
 0 -192 l 1
 0 -96 l 1
 0 0 l 1
 96 0 l 1
 96 -96 l 1
 192 -96 l 1
 288 -96 l 1
 384 -96 l 1
 384 0 l 1
 384 96 l 1
 384 192 l 1
 384 288 l 1
 384 384 l 1
 384 480 l 1
EndSplineSet
EndChar

StartChar: l
Encoding: 108 108 75
Width: 288
VWidth: 1296
Flags: HW
LayerCount: 2
Fore
SplineSet
0 864 m 1
 96 864 l 1
 96 768 l 1
 96 672 l 1
 96 576 l 1
 96 480 l 1
 96 384 l 1
 96 288 l 1
 96 192 l 1
 96 96 l 1
 0 96 l 1
 0 192 l 1
 0 288 l 1
 0 384 l 1
 0 480 l 1
 0 576 l 1
 0 672 l 1
 0 768 l 1
 0 864 l 1
96 96 m 1
 192 96 l 1
 192 0 l 1
 96 0 l 1
 96 96 l 1
EndSplineSet
EndChar

StartChar: m
Encoding: 109 109 76
Width: 576
VWidth: 1296
Flags: HW
LayerCount: 2
Fore
SplineSet
0 480 m 1
 96 480 l 1
 192 480 l 1
 192 384 l 1
 96 384 l 1
 96 288 l 1
 96 192 l 1
 96 96 l 1
 96 0 l 1
 0 0 l 1
 0 96 l 1
 0 192 l 1
 0 288 l 1
 0 384 l 1
 0 480 l 1
192 384 m 1
 288 384 l 1
 288 288 l 1
 288 192 l 1
 288 96 l 1
 288 0 l 1
 192 0 l 1
 192 96 l 1
 192 192 l 1
 192 288 l 1
 192 384 l 1
288 384 m 1
 288 480 l 1
 384 480 l 1
 384 384 l 1
 288 384 l 1
384 384 m 1
 480 384 l 1
 480 288 l 1
 480 192 l 1
 480 96 l 1
 480 0 l 1
 384 0 l 1
 384 96 l 1
 384 192 l 1
 384 288 l 1
 384 384 l 1
EndSplineSet
EndChar

StartChar: n
Encoding: 110 110 77
Width: 576
VWidth: 1296
Flags: HW
LayerCount: 2
Fore
SplineSet
0 480 m 1
 96 480 l 1
 192 480 l 1
 288 480 l 1
 384 480 l 1
 384 384 l 1
 288 384 l 1
 192 384 l 1
 96 384 l 1
 96 288 l 1
 96 192 l 1
 96 96 l 1
 96 0 l 1
 0 0 l 1
 0 96 l 1
 0 192 l 1
 0 288 l 1
 0 384 l 1
 0 480 l 1
384 384 m 1
 480 384 l 1
 480 288 l 1
 480 192 l 1
 480 96 l 1
 480 0 l 1
 384 0 l 1
 384 96 l 1
 384 192 l 1
 384 288 l 1
 384 384 l 1
EndSplineSet
EndChar

StartChar: o
Encoding: 111 111 78
Width: 576
VWidth: 1296
Flags: HW
LayerCount: 2
Fore
SplineSet
0 480 m 1
 96 480 l 1
 192 480 l 1
 288 480 l 1
 384 480 l 1
 480 480 l 1
 480 384 l 1
 480 288 l 1
 480 192 l 1
 480 96 l 1
 480 0 l 1
 384 0 l 1
 288 0 l 1
 192 0 l 1
 96 0 l 1
 0 0 l 1
 0 96 l 1
 0 192 l 1
 0 288 l 1
 0 384 l 1
 0 480 l 1
96 384 m 1
 96 288 l 1
 96 192 l 1
 96 96 l 1
 192 96 l 1
 288 96 l 1
 384 96 l 1
 384 192 l 1
 384 288 l 1
 384 384 l 1
 288 384 l 1
 192 384 l 1
 96 384 l 1
EndSplineSet
EndChar

StartChar: p
Encoding: 112 112 79
Width: 576
VWidth: 1296
Flags: HW
LayerCount: 2
Fore
SplineSet
0 480 m 1
 96 480 l 1
 192 480 l 1
 288 480 l 1
 384 480 l 1
 480 480 l 1
 480 384 l 1
 480 288 l 1
 480 192 l 1
 480 96 l 1
 480 0 l 1
 384 0 l 1
 288 0 l 1
 192 0 l 1
 96 0 l 1
 96 -96 l 1
 96 -192 l 1
 96 -288 l 1
 96 -384 l 1
 0 -384 l 1
 0 -288 l 1
 0 -192 l 1
 0 -96 l 1
 0 0 l 1
 0 96 l 1
 0 192 l 1
 0 288 l 1
 0 384 l 1
 0 480 l 1
96 384 m 1
 96 288 l 1
 96 192 l 1
 96 96 l 1
 192 96 l 1
 288 96 l 1
 384 96 l 1
 384 192 l 1
 384 288 l 1
 384 384 l 1
 288 384 l 1
 192 384 l 1
 96 384 l 1
EndSplineSet
EndChar

StartChar: q
Encoding: 113 113 80
Width: 576
VWidth: 1296
Flags: HW
LayerCount: 2
Fore
SplineSet
0 480 m 1
 96 480 l 1
 192 480 l 1
 288 480 l 1
 384 480 l 1
 480 480 l 1
 480 384 l 1
 480 288 l 1
 480 192 l 1
 480 96 l 1
 480 0 l 1
 480 -96 l 1
 480 -192 l 1
 480 -288 l 1
 480 -384 l 1
 384 -384 l 1
 384 -288 l 1
 384 -192 l 1
 384 -96 l 1
 384 0 l 1
 288 0 l 1
 192 0 l 1
 96 0 l 1
 0 0 l 1
 0 96 l 1
 0 192 l 1
 0 288 l 1
 0 384 l 1
 0 480 l 1
96 384 m 1
 96 288 l 1
 96 192 l 1
 96 96 l 1
 192 96 l 1
 288 96 l 1
 384 96 l 1
 384 192 l 1
 384 288 l 1
 384 384 l 1
 288 384 l 1
 192 384 l 1
 96 384 l 1
EndSplineSet
EndChar

StartChar: r
Encoding: 114 114 81
Width: 576
Flags: HW
LayerCount: 2
Fore
SplineSet
0 480 m 1
 96 480 l 1
 96 384 l 1
 192 384 l 1
 192 288 l 1
 96 288 l 1
 96 192 l 1
 96 96 l 1
 96 0 l 1
 0 0 l 1
 0 96 l 1
 0 192 l 1
 0 288 l 1
 0 384 l 1
 0 480 l 1
192 384 m 1
 192 480 l 1
 288 480 l 1
 384 480 l 1
 384 384 l 1
 288 384 l 1
 192 384 l 1
384 384 m 1
 480 384 l 1
 480 288 l 1
 384 288 l 1
 384 384 l 1
EndSplineSet
EndChar

StartChar: s
Encoding: 115 115 82
Width: 576
Flags: HW
LayerCount: 2
Fore
SplineSet
0 480 m 1
 96 480 l 1
 192 480 l 1
 288 480 l 1
 384 480 l 1
 480 480 l 1
 480 384 l 1
 384 384 l 1
 288 384 l 1
 192 384 l 1
 96 384 l 1
 96 288 l 1
 192 288 l 1
 288 288 l 1
 384 288 l 1
 480 288 l 1
 480 192 l 1
 480 96 l 1
 480 0 l 1
 384 0 l 1
 288 0 l 1
 192 0 l 1
 96 0 l 1
 0 0 l 1
 0 96 l 1
 96 96 l 1
 192 96 l 1
 288 96 l 1
 384 96 l 1
 384 192 l 1
 288 192 l 1
 192 192 l 1
 96 192 l 1
 0 192 l 1
 0 288 l 1
 0 384 l 1
 0 480 l 1
EndSplineSet
EndChar

StartChar: t
Encoding: 116 116 83
Width: 576
Flags: HW
LayerCount: 2
Fore
SplineSet
192 672 m 1
 288 672 l 1
 288 576 l 1
 288 480 l 1
 384 480 l 1
 480 480 l 1
 480 384 l 1
 384 384 l 1
 288 384 l 1
 288 288 l 1
 288 192 l 1
 288 96 l 1
 384 96 l 1
 480 96 l 1
 480 0 l 1
 384 0 l 1
 288 0 l 1
 192 0 l 1
 192 96 l 1
 192 192 l 1
 192 288 l 1
 192 384 l 1
 96 384 l 1
 0 384 l 1
 0 480 l 1
 96 480 l 1
 192 480 l 1
 192 576 l 1
 192 672 l 1
EndSplineSet
EndChar

StartChar: u
Encoding: 117 117 84
Width: 576
Flags: HW
LayerCount: 2
Fore
SplineSet
0 480 m 1
 96 480 l 1
 96 384 l 1
 96 288 l 1
 96 192 l 1
 96 96 l 1
 192 96 l 1
 288 96 l 1
 384 96 l 1
 384 192 l 1
 384 288 l 1
 384 384 l 1
 384 480 l 1
 480 480 l 1
 480 384 l 1
 480 288 l 1
 480 192 l 1
 480 96 l 1
 480 0 l 1
 384 0 l 1
 288 0 l 1
 192 0 l 1
 96 0 l 1
 0 0 l 1
 0 96 l 1
 0 192 l 1
 0 288 l 1
 0 384 l 1
 0 480 l 1
EndSplineSet
EndChar

StartChar: v
Encoding: 118 118 85
Width: 576
Flags: HW
LayerCount: 2
Fore
SplineSet
0 480 m 1
 96 480 l 1
 96 384 l 1
 96 288 l 1
 96 192 l 1
 0 192 l 1
 0 288 l 1
 0 384 l 1
 0 480 l 1
96 192 m 1
 192 192 l 1
 192 96 l 1
 96 96 l 1
 96 192 l 1
192 96 m 1
 288 96 l 1
 288 0 l 1
 192 0 l 1
 192 96 l 1
288 96 m 1
 288 192 l 1
 384 192 l 1
 384 96 l 1
 288 96 l 1
384 192 m 1
 384 288 l 1
 384 384 l 1
 384 480 l 1
 480 480 l 1
 480 384 l 1
 480 288 l 1
 480 192 l 1
 384 192 l 1
EndSplineSet
EndChar

StartChar: w
Encoding: 119 119 86
Width: 576
Flags: HW
LayerCount: 2
Fore
SplineSet
0 480 m 1
 96 480 l 1
 96 384 l 1
 96 288 l 1
 96 192 l 1
 96 96 l 1
 192 96 l 1
 192 0 l 1
 96 0 l 1
 0 0 l 1
 0 96 l 1
 0 192 l 1
 0 288 l 1
 0 384 l 1
 0 480 l 1
192 96 m 1
 192 192 l 1
 288 192 l 1
 288 96 l 1
 192 96 l 1
288 96 m 1
 384 96 l 1
 384 192 l 1
 384 288 l 1
 384 384 l 1
 384 480 l 1
 480 480 l 1
 480 384 l 1
 480 288 l 1
 480 192 l 1
 480 96 l 1
 480 0 l 1
 384 0 l 1
 288 0 l 1
 288 96 l 1
EndSplineSet
EndChar

StartChar: x
Encoding: 120 120 87
Width: 576
Flags: HW
LayerCount: 2
Fore
SplineSet
0 480 m 1
 96 480 l 1
 96 384 l 1
 0 384 l 1
 0 480 l 1
96 384 m 1
 192 384 l 1
 192 288 l 1
 96 288 l 1
 96 384 l 1
192 288 m 1
 288 288 l 1
 288 192 l 1
 192 192 l 1
 192 288 l 1
288 288 m 1
 288 384 l 1
 384 384 l 1
 384 288 l 1
 288 288 l 1
384 384 m 1
 384 480 l 1
 480 480 l 1
 480 384 l 1
 384 384 l 1
288 192 m 1
 384 192 l 1
 384 96 l 1
 288 96 l 1
 288 192 l 1
384 96 m 1
 480 96 l 1
 480 0 l 1
 384 0 l 1
 384 96 l 1
192 192 m 1
 192 96 l 1
 96 96 l 1
 96 192 l 1
 192 192 l 1
96 96 m 1
 96 0 l 1
 0 0 l 1
 0 96 l 1
 96 96 l 1
EndSplineSet
EndChar

StartChar: y
Encoding: 121 121 88
Width: 576
Flags: HW
LayerCount: 2
Fore
SplineSet
0 480 m 1
 96 480 l 1
 96 384 l 1
 96 288 l 1
 96 192 l 1
 96 96 l 1
 192 96 l 1
 288 96 l 1
 384 96 l 1
 384 192 l 1
 384 288 l 1
 384 384 l 1
 384 480 l 1
 480 480 l 1
 480 384 l 1
 480 288 l 1
 480 192 l 1
 480 96 l 1
 480 0 l 1
 480 -96 l 1
 480 -192 l 1
 480 -288 l 1
 480 -384 l 1
 384 -384 l 1
 288 -384 l 1
 192 -384 l 1
 96 -384 l 1
 0 -384 l 1
 0 -288 l 1
 96 -288 l 1
 192 -288 l 1
 288 -288 l 1
 384 -288 l 1
 384 -192 l 1
 384 -96 l 1
 384 0 l 1
 288 0 l 1
 192 0 l 1
 96 0 l 1
 0 0 l 1
 0 96 l 1
 0 192 l 1
 0 288 l 1
 0 384 l 1
 0 480 l 1
EndSplineSet
EndChar

StartChar: z
Encoding: 122 122 89
Width: 576
Flags: HW
LayerCount: 2
Fore
SplineSet
0 480 m 1
 96 480 l 1
 192 480 l 1
 288 480 l 1
 384 480 l 1
 480 480 l 1
 480 384 l 1
 384 384 l 1
 384 288 l 1
 288 288 l 1
 288 384 l 1
 192 384 l 1
 96 384 l 1
 0 384 l 1
 0 480 l 1
288 288 m 1
 288 192 l 1
 192 192 l 1
 192 288 l 1
 288 288 l 1
192 192 m 1
 192 96 l 1
 288 96 l 1
 384 96 l 1
 480 96 l 1
 480 0 l 1
 384 0 l 1
 288 0 l 1
 192 0 l 1
 96 0 l 1
 0 0 l 1
 0 96 l 1
 96 96 l 1
 96 192 l 1
 192 192 l 1
EndSplineSet
EndChar

StartChar: braceleft
Encoding: 123 123 90
Width: 384
Flags: HW
LayerCount: 2
Fore
SplineSet
192 864 m 1
 288 864 l 1
 288 768 l 1
 192 768 l 1
 192 864 l 1
192 768 m 1
 192 672 l 1
 192 576 l 1
 192 480 l 1
 96 480 l 1
 96 576 l 1
 96 672 l 1
 96 768 l 1
 192 768 l 1
96 480 m 1
 96 384 l 1
 0 384 l 1
 0 480 l 1
 96 480 l 1
96 384 m 1
 192 384 l 1
 192 288 l 1
 192 192 l 1
 192 96 l 1
 96 96 l 1
 96 192 l 1
 96 288 l 1
 96 384 l 1
192 96 m 1
 288 96 l 1
 288 0 l 1
 192 0 l 1
 192 96 l 1
EndSplineSet
EndChar

StartChar: bar
Encoding: 124 124 91
Width: 576
Flags: HW
LayerCount: 2
Fore
SplineSet
0 864 m 1
 96 864 l 1
 96 768 l 1
 96 672 l 1
 96 576 l 1
 96 480 l 1
 96 384 l 1
 96 288 l 1
 96 192 l 1
 96 96 l 1
 96 0 l 1
 0 0 l 1
 0 96 l 1
 0 192 l 1
 0 288 l 1
 0 384 l 1
 0 480 l 1
 0 576 l 1
 0 672 l 1
 0 768 l 1
 0 864 l 1
EndSplineSet
EndChar

StartChar: braceright
Encoding: 125 125 92
Width: 384
Flags: HW
LayerCount: 2
Fore
SplineSet
0 864 m 1
 96 864 l 1
 96 768 l 1
 0 768 l 1
 0 864 l 1
96 768 m 1
 192 768 l 1
 192 672 l 1
 192 576 l 1
 192 480 l 1
 96 480 l 1
 96 576 l 1
 96 672 l 1
 96 768 l 1
192 480 m 1
 288 480 l 1
 288 384 l 1
 192 384 l 1
 192 480 l 1
192 384 m 1
 192 288 l 1
 192 192 l 1
 192 96 l 1
 96 96 l 1
 96 192 l 1
 96 288 l 1
 96 384 l 1
 192 384 l 1
96 96 m 1
 96 0 l 1
 0 0 l 1
 0 96 l 1
 96 96 l 1
EndSplineSet
EndChar

StartChar: asciitilde
Encoding: 126 126 93
Width: 576
Flags: HW
LayerCount: 2
Fore
SplineSet
288 576 m 1
 384 576 l 1
 384 480 l 1
 288 480 l 1
 288 576 l 1
384 480 m 1
 480 480 l 1
 480 384 l 1
 384 384 l 1
 384 480 l 1
288 480 m 1
 288 384 l 1
 192 384 l 1
 192 480 l 1
 288 480 l 1
192 384 m 1
 192 288 l 1
 96 288 l 1
 96 384 l 1
 192 384 l 1
96 384 m 1
 0 384 l 1
 0 480 l 1
 96 480 l 1
 96 384 l 1
EndSplineSet
EndChar
